<svg width="143" height="155" viewBox="0 0 143 155" fill="none" xmlns="http://www.w3.org/2000/svg">
<path d="M42.454 122.87C-33.6724 77.7417 39.7562 58.5942 63.0708 37.1595C86.3854 15.7249 90.8779 26.8686 113.789 51.7889C136.699 76.7091 119.939 73.397 96.6244 94.8316C85.4275 121.621 95.8153 164.927 42.454 122.87Z" fill="#A3A6FB"/>
<path d="M86.2763 66.5803C81 66.5968 76.7361 70.8874 76.7526 76.1636C76.7691 81.4399 81.0597 85.7037 86.3359 85.6873C91.6122 85.6708 109.676 81.3371 109.659 76.0609C109.643 70.7846 91.5525 66.5638 86.2763 66.5803Z" fill="#394167"/>
<path d="M34.3138 73.4575C37.3218 69.1227 43.2744 68.0471 47.6092 71.0551C51.944 74.0632 53.0196 80.0157 50.0115 84.3505C47.0035 88.6854 33.1837 101.098 28.8489 98.0902C24.5141 95.0822 31.3057 77.7923 34.3138 73.4575Z" fill="#394167"/>
<path d="M76.4965 108.399C76.5237 108.399 76.5419 108.389 76.5691 108.363C76.1791 108.389 76.1247 108.399 76.4965 108.399Z" fill="white"/>
<path d="M80.1832 108.367C80.2014 108.385 80.2194 108.395 80.2376 108.395C80.5642 108.395 80.5188 108.385 80.1832 108.367Z" fill="white"/>
<path d="M62.305 37.8634C62.7473 37.7105 75.1085 37.6781 81.3125 47.829C84.2362 53.0611 89.7947 68.7848 88.6389 89.8225C88.6496 93.8907 87.9706 104.027 80.0103 109.131C73.254 113.461 67.803 114.036 63.5567 114.166C58.8166 114.31 52.7926 114.141 45.2748 109.373C37.2881 104.311 36.2609 94.1793 36.2502 90.1112C34.8812 65.54 40.409 51.8524 43.344 48.08C49.5013 37.8968 61.8621 37.7129 62.305 37.8634Z" fill="#394167"/>
<path d="M78.405 110.348C78.4141 110.348 78.4231 110.338 78.4323 110.33C78.2686 110.338 78.2413 110.348 78.405 110.348Z" fill="white"/>
<path d="M75.0225 49.2187C71.7325 45.6736 67.9371 48.7062 65.5255 51.1974C63.7421 53.0445 63.3713 53.3405 62.4394 53.356C61.4698 53.3718 60.9399 53.0518 59.1531 51.214C56.7286 48.729 52.9174 45.7163 49.6459 49.2851C46.3746 52.8473 41.0323 59.0901 41.9475 79.1837C42.8627 99.2778 51.6052 104.991 56.1502 106.848C60.3295 108.554 65.2554 109.217 71.0286 106.384C74.607 104.624 82.0671 99.1681 82.8773 79.0701C83.6874 58.9784 78.3187 52.7703 75.0225 49.2187Z" fill="white"/>
<path d="M78.3044 110.333C78.3135 110.341 78.3225 110.341 78.3317 110.341C78.4681 110.351 78.4499 110.341 78.3044 110.333Z" fill="white"/>
<path d="M65.8277 68.4112C64.1847 65.6799 63.4204 65.0268 62.736 65.0286C62.0517 65.0304 61.1209 65.4786 59.4468 68.3536C58.8824 69.3345 58.2475 70.8017 58.4058 71.5241C58.5576 72.2464 62.0284 73.5611 63.0123 73.4776C64.0224 73.3939 66.6392 72.1645 66.8005 71.5629C66.9748 70.9072 66.4364 69.4159 65.8277 68.4112Z" fill="#FF9200"/>
<path d="M73.5051 62.912C73.5116 65.3936 72.0151 67.5095 70.1769 67.5143C68.3386 67.5191 66.8546 65.4111 66.8482 62.9294C66.8458 62.0136 71.9624 58.4273 71.9624 58.4273C73.8006 58.4225 73.4986 60.4303 73.5051 62.912Z" fill="#074B77"/>
<path d="M51.5894 62.9073C51.5829 65.3889 53.0793 67.5048 54.9176 67.5096C56.7558 67.5144 58.2398 65.4064 58.2463 62.9247C58.2487 62.0089 53.1321 58.4226 53.1321 58.4226C51.2938 58.4178 51.5959 60.4256 51.5894 62.9073Z" fill="#074B77"/>
<path d="M41.6724 116.315C41.6724 112.136 45.0601 108.748 49.2391 108.748H54.2429C58.4219 108.748 61.8097 112.136 61.8097 116.315C61.8097 117.798 60.6076 119 59.1247 119H44.3574C42.8745 119 41.6724 117.798 41.6724 116.315Z" fill="#FF9200"/>
<path d="M65.0389 116.315C65.0389 112.136 68.4266 108.748 72.6056 108.748H77.6094C81.7884 108.748 85.1762 112.136 85.1762 116.315C85.1762 117.798 83.9741 119 82.4912 119H67.7239C66.241 119 65.0389 117.798 65.0389 116.315Z" fill="#FF9200"/>
<path d="M64.1696 2.24687C63.8725 2.04883 63.6141 1.82351 63.3924 1.59158C62.9071 1.08372 61.9528 1.13811 61.9783 1.84015C61.9964 2.33671 62.1037 2.92407 62.3721 3.59499C63.2708 5.84185 64.1696 5.84185 64.1696 8.53809C64.1696 11.2343 60.1252 11.2343 59.6758 16.1774C59.2265 21.1205 64.1696 21.5699 64.1696 24.7155C64.1696 27.8611 62.8215 28.3105 62.3721 29.6586C62.1565 30.3053 63.2598 30.524 63.7609 30.062C65.4985 28.46 68.2139 27.2666 68.2139 24.7155C68.6633 20.2218 65.0683 18.8737 65.0683 16.1774C65.0683 13.4812 68.2139 11.6837 68.2139 8.53809C68.2139 5.39248 65.5177 3.14561 64.1696 2.24687Z" fill="#C4C4C4"/>
<path d="M53.4932 17.7841C53.3071 17.66 53.1452 17.5188 53.0063 17.3735C52.7021 17.0553 52.1042 17.0894 52.1202 17.5293C52.1315 17.8404 52.1988 18.2085 52.3669 18.6289C52.9301 20.0368 53.4932 20.0368 53.4932 21.7262C53.4932 23.4157 50.959 23.4157 50.6774 26.5131C50.3959 29.6105 53.4932 29.8921 53.4932 31.8631C53.4932 33.8342 52.6485 34.1158 52.3669 34.9605C52.2319 35.3657 52.9232 35.5027 53.2372 35.2132C54.3259 34.2094 56.0275 33.4617 56.0275 31.8631C56.309 29.0473 54.0564 28.2026 54.0564 26.5131C54.0564 24.8236 56.0275 23.6973 56.0275 21.7262C56.0275 19.7552 54.338 18.3473 53.4932 17.7841Z" fill="#C4C4C4"/>
</svg>
