<svg width="137" height="115" viewBox="0 0 137 115" fill="none" xmlns="http://www.w3.org/2000/svg">
<path d="M117.932 36.2148C164.827 106.006 84.1245 92.0058 49.8107 100.623C15.497 109.24 17.5288 97.9069 9.83191 67.2571C2.13505 36.6074 16.2081 46.3385 50.5219 37.7215C76.3359 19.5512 90.9591 -21.5734 117.932 36.2148Z" fill="#B6E0DE"/>
<path d="M88.4891 94.2549C88.5193 94.2549 88.5395 94.2441 88.5696 94.2159C88.1375 94.2441 88.0772 94.2549 88.4891 94.2549Z" fill="white"/>
<path d="M92.5747 94.22C92.5949 94.2395 92.6148 94.2504 92.635 94.2504C92.9968 94.2504 92.9465 94.2395 92.5747 94.22Z" fill="white"/>
<path d="M72.7676 16.111C73.2576 15.9417 86.9522 15.9058 93.8254 27.1517C97.0645 32.9482 103.223 50.368 101.942 73.6751C101.954 78.1821 101.202 89.4113 92.3828 95.0662C84.8976 99.8637 78.8586 100.501 74.1543 100.644C68.9029 100.804 62.2291 100.617 53.9003 95.3348C45.0521 89.7261 43.914 78.5019 43.9022 73.9949C42.3855 46.7732 48.5096 31.6091 51.7612 27.4298C58.5827 16.1482 72.2768 15.9444 72.7676 16.111Z" fill="#394167"/>
<path d="M90.6048 96.4146C90.6148 96.4146 90.6248 96.4037 90.635 96.395C90.4536 96.4037 90.4234 96.4146 90.6048 96.4146Z" fill="white"/>
<path d="M86.8576 28.6912C83.2127 24.7636 79.0079 28.1234 76.3362 30.8833C74.3604 32.9296 73.9496 33.2576 72.9172 33.2748C71.8429 33.2922 71.2559 32.9377 69.2764 30.9017C66.5904 28.1486 62.368 24.8109 58.7436 28.7648C55.1194 32.7112 49.2008 39.6274 50.2147 61.8885C51.2287 84.1502 60.9143 90.4798 65.9496 92.5366C70.5797 94.4275 76.0369 95.1616 82.4329 92.0225C86.3973 90.0728 94.6622 84.0286 95.5597 61.7626C96.4572 39.5037 90.5094 32.6259 86.8576 28.6912Z" fill="white"/>
<path d="M90.4922 96.3983C90.5022 96.407 90.5122 96.407 90.5225 96.407C90.6736 96.4179 90.6533 96.407 90.4922 96.3983Z" fill="white"/>
<path d="M75.3387 49.0492C74.0738 46.9465 73.4854 46.4438 72.9585 46.4451C72.4317 46.4465 71.7151 46.7916 70.4263 49.0049C69.9918 49.7601 69.503 50.8896 69.6249 51.4457C69.7417 52.0018 72.4138 53.0139 73.1712 52.9496C73.9488 52.8852 75.9634 51.9387 76.0876 51.4756C76.2218 50.9708 75.8073 49.8228 75.3387 49.0492Z" fill="#FF9200"/>
<path d="M49.9085 103.025C49.9085 98.3955 53.6617 94.6424 58.2915 94.6424H63.8351C68.4649 94.6424 72.2181 98.3955 72.2181 103.025C72.2181 104.668 70.8863 106 69.2435 106H52.8831C51.2403 106 49.9085 104.668 49.9085 103.025Z" fill="#FF9200"/>
<path d="M75.7969 103.025C75.7969 98.3955 79.5501 94.6424 84.1799 94.6424H89.7235C94.3533 94.6424 98.1065 98.3955 98.1065 103.025C98.1065 104.668 96.7747 106 95.1319 106H78.7715C77.1287 106 75.7969 104.668 75.7969 103.025Z" fill="#FF9200"/>
<ellipse cx="81.0146" cy="43.9367" rx="3.74322" ry="5.05334" fill="#074B77"/>
<ellipse cx="64.605" cy="44.1238" rx="3.74322" ry="5.05334" fill="#074B77"/>
<rect x="47.7853" y="29.7895" width="21.1751" height="23.1665" rx="6.04056" stroke="#FF9200" stroke-width="1.72587"/>
<rect x="76.661" y="29.7894" width="21.1751" height="23.1665" rx="6.04056" stroke="#FF9200" stroke-width="1.72587"/>
<path d="M68.8273 44.3597C69.9889 43.198 73.1088 41.5717 76.295 44.3597" stroke="#FF9200" stroke-width="1.72587"/>
<path d="M70.6373 49.6303L39.1371 45.8535V84.3766L70.6373 88.1534V49.6303Z" fill="#FEEFEE"/>
<path d="M74.9817 49.6303L106.482 45.8535V84.3766L74.9817 88.1534V49.6303Z" fill="#FEEFEE"/>
<path d="M77.1547 50.3856L107.938 47.433C108.322 47.3961 108.655 47.6984 108.655 48.0846V85.2924C108.655 85.6298 108.399 85.9119 108.063 85.9441L77.1547 88.9087V50.3856Z" fill="#77B3B0"/>
<path d="M81.5001 54.9177L104.311 52.6517V63.982L81.5001 66.2481V54.9177Z" fill="#A0EBE7"/>
<path d="M68.4644 50.3856L37.6813 47.433C37.2968 47.3961 36.9642 47.6984 36.9642 48.0846V85.2924C36.9642 85.6298 37.2205 85.9119 37.5563 85.9441L68.4644 88.9087V50.3856Z" fill="#77B3B0"/>
<rect x="67.3787" y="49.6303" width="10.8621" height="40.0338" rx="1.30928" fill="#50757A"/>
<path d="M114.062 73.751C115.985 73.031 116.233 68.9459 114.616 64.6266C112.999 60.3074 110.129 57.3897 108.206 58.1097C106.283 58.8297 101.005 64.798 102.622 69.1172C104.239 73.4365 112.139 74.4711 114.062 73.751Z" fill="#394167"/>
<path d="M32.4823 73.751C30.5591 73.031 30.3109 68.9459 31.928 64.6266C33.545 60.3074 36.415 57.3897 38.3382 58.1097C40.2614 58.8297 45.5396 64.798 43.9225 69.1172C42.3054 73.4365 34.4055 74.4711 32.4823 73.751Z" fill="#394167"/>
</svg>
