<svg width="140" height="127" viewBox="0 0 140 127" fill="none" xmlns="http://www.w3.org/2000/svg">
<path d="M117.684 39.81C168.678 116.447 87.5775 101.214 54.0086 110.756C20.4398 120.298 21.7486 107.834 12.175 74.1524C2.60139 40.4708 17.2011 51.1415 50.7699 41.6C75.2904 21.5721 87.247 -23.6699 117.684 39.81Z" fill="#4BBFE8"/>
<rect x="98.5721" y="26.3248" width="11.9419" height="9.38291" rx="4.69146" fill="#074B77"/>
<rect x="29.4791" y="26.3248" width="11.9419" height="9.38291" rx="4.69146" fill="#074B77"/>
<path d="M82.4402 57.4307C79.5716 65.8077 81.0867 73.9137 85.8243 75.536C90.5619 77.1584 96.7279 71.6827 99.5965 63.3058C102.465 54.9288 108.453 24.9138 103.715 23.2915C98.9774 21.6691 85.3089 49.0538 82.4402 57.4307Z" fill="#394167"/>
<path d="M61.3257 57.0007C65.3896 65.6659 65.0086 74.4142 60.4748 76.5405C55.941 78.6667 48.9712 73.3659 44.9073 64.7007C40.8434 56.0354 30.5958 24.6241 35.1296 22.4978C39.6634 20.3715 57.2618 48.3354 61.3257 57.0007Z" fill="#394167"/>
<path d="M84.7089 95.9381C84.7347 95.9381 84.752 95.9288 84.7778 95.9047C84.4077 95.9288 84.356 95.9381 84.7089 95.9381Z" fill="white"/>
<path d="M88.2086 95.9086C88.2259 95.9253 88.243 95.9346 88.2602 95.9346C88.5702 95.9346 88.5271 95.9253 88.2086 95.9086Z" fill="white"/>
<path d="M71.3318 28.9937C71.752 28.8496 83.4839 28.8489 89.3474 38.498C92.1096 43.4709 97.347 58.4076 96.199 78.3714C96.1992 82.2324 95.5302 91.8506 87.9628 96.6757C81.5399 100.769 76.365 101.301 72.3347 101.414C67.8355 101.54 62.1187 101.365 54.9952 96.8215C47.4274 91.9973 46.477 82.3792 46.4768 78.5182C45.2371 55.1947 50.5166 42.2174 53.3114 38.6442C59.1799 28.9944 70.9118 28.8498 71.3318 28.9937Z" fill="#394167"/>
<path d="M86.5207 97.7883C86.5292 97.7883 86.5378 97.779 86.5466 97.7715C86.3912 97.779 86.3653 97.7883 86.5207 97.7883Z" fill="white"/>
<path d="M83.3756 39.802C80.2617 36.4293 76.6522 39.2983 74.3573 41.6568C72.6602 43.4055 72.3076 43.6856 71.4231 43.6981C70.5028 43.7107 70.0007 43.4057 68.3093 41.6572C66.0143 39.2927 62.4044 36.4242 59.2908 39.8034C56.1774 43.1763 51.092 49.0882 51.9118 68.1611C52.7317 87.2343 61.0152 92.678 65.3243 94.4511C69.2867 96.0811 73.9602 96.7219 79.4463 94.0467C82.8468 92.3852 89.9404 87.2253 90.758 68.1525C91.5757 49.0858 86.4954 43.1807 83.3756 39.802Z" fill="white"/>
<path d="M86.4243 97.7742C86.4329 97.7817 86.4414 97.7817 86.4502 97.7817C86.5797 97.791 86.5623 97.7817 86.4243 97.7742Z" fill="white"/>
<path d="M75.1403 58.0988C73.4882 55.3364 72.7181 54.675 72.027 54.675C71.336 54.6751 70.3949 55.1253 68.697 58.0242C68.1245 59.0132 67.4796 60.4932 67.6376 61.223C67.789 61.9528 71.2904 63.2894 72.2842 63.2075C73.3044 63.1257 75.95 61.891 76.1145 61.2839C76.2922 60.6222 75.7524 59.1149 75.1403 58.0988Z" fill="#FF9200"/>
<path d="M50.8046 103.452C50.8046 99.4854 54.0199 96.2701 57.9861 96.2701H62.7352C66.7014 96.2701 69.9167 99.4854 69.9167 103.452C69.9167 104.859 68.7758 106 67.3684 106H53.3529C51.9455 106 50.8046 104.859 50.8046 103.452Z" fill="#FF9200"/>
<path d="M73.8349 103.452C73.8349 99.4854 77.0501 96.2701 81.0164 96.2701H85.7655C89.7317 96.2701 92.947 99.4854 92.947 103.452C92.947 104.859 91.8061 106 90.3987 106H76.3831C74.9758 106 73.8349 104.859 73.8349 103.452Z" fill="#FF9200"/>
<path d="M80.6989 49.3795L75.5722 52.7784L80.6847 54.924" stroke="#074B77" stroke-width="1.64529" stroke-linecap="round" stroke-linejoin="round"/>
<path d="M62.7874 49.3338L67.8966 52.7589L62.7733 54.8783" stroke="#074B77" stroke-width="1.64529" stroke-linecap="round" stroke-linejoin="round"/>
</svg>
