<svg width="105" height="122" viewBox="0 0 105 122" fill="none" xmlns="http://www.w3.org/2000/svg">
<path d="M99.4133 69.5259C124.559 148.141 58.4727 115.115 27.2412 115.115C-3.99027 115.115 0.185939 104.684 0.185939 73.2809C0.185939 41.8775 10.1428 54.6626 41.3743 54.6626C67.3825 43.3978 88.7448 7.30094 99.4133 69.5259Z" fill="#F2EDB9"/>
<path d="M88.772 69.8377C87.7116 74.9013 82.7471 78.1466 77.6835 77.0862C72.6198 76.0258 69.3746 71.0613 70.435 65.9977C71.4954 60.9341 79.2332 44.4454 84.2968 45.5058C89.3604 46.5662 89.8324 64.7741 88.772 69.8377Z" fill="#394167"/>
<path d="M37.288 91.4591C41.6458 94.2473 47.4388 92.9749 50.227 88.6171C53.0153 84.2593 51.7429 78.4663 47.385 75.6781C43.0272 72.8899 25.8368 66.8699 23.0486 71.2278C20.2604 75.5856 32.9302 88.6709 37.288 91.4591Z" fill="#394167"/>
<path d="M75.0574 109.049C75.084 109.049 75.1019 109.039 75.1286 109.014C74.7462 109.039 74.6928 109.049 75.0574 109.049Z" fill="white"/>
<path d="M78.6732 109.018C78.6911 109.035 78.7087 109.045 78.7266 109.045C79.0468 109.045 79.0022 109.035 78.6732 109.018Z" fill="white"/>
<path d="M46.952 41.824C47.2946 41.5188 58.4696 36.8258 67.9141 43.6718C72.5341 47.304 83.497 59.4371 90.3882 78.9127C91.9327 82.5905 95.1423 92.0198 89.8639 99.6426C85.383 106.111 80.6666 108.688 76.8727 110.407C72.6371 112.326 67.1216 114.446 58.519 112.967C49.3808 111.399 44.6287 102.617 43.0842 98.9395C32.5749 77.2185 32.4135 62.7454 33.6465 58.224C35.377 46.685 46.4944 41.855 46.952 41.824Z" fill="#394167"/>
<path d="M76.9294 110.96C76.9382 110.96 76.9471 110.951 76.9561 110.943C76.7956 110.951 76.7689 110.96 76.9294 110.96Z" fill="white"/>
<path d="M62.7462 47.3026C58.4311 45.3354 56.1404 49.512 54.8977 52.6764C53.9806 55.0209 53.7566 55.4287 52.9191 55.7944C52.0475 56.1745 51.4473 56.0848 49.1368 55.0957C46.005 53.7614 41.4192 52.4727 39.8049 56.9369C38.1882 61.395 35.7086 69.0604 44.1179 86.9003C52.5274 104.741 62.5951 106.613 67.4089 106.578C71.8352 106.546 76.5432 105.287 80.6991 100.545C83.2737 97.6021 87.9669 89.85 81.1174 71.3552C74.2703 52.8662 67.0693 49.2732 62.7462 47.3026Z" fill="white"/>
<path d="M76.8305 110.946C76.8393 110.954 76.8482 110.954 76.8572 110.954C76.991 110.963 76.9731 110.954 76.8305 110.946Z" fill="white"/>
<path d="M61.9519 67.8058C59.4984 66.0009 58.5842 65.7059 57.9812 65.9591C57.3783 66.2123 56.7221 66.9498 56.3027 70.1012C56.1655 71.1739 56.145 72.7015 56.5503 73.2804C56.9497 73.8617 60.4944 73.7451 61.3315 73.3096C62.1917 72.8644 64.0477 70.8179 63.9688 70.228C63.8814 69.5856 62.8582 68.4682 61.9519 67.8058Z" fill="#FF9200"/>
<path d="M66.624 60.5019C67.5662 62.7454 65.4851 62.3314 63.8233 63.0293C62.1614 63.7272 61.5481 65.2728 60.6059 63.0293C59.6638 60.7858 60.2472 58.4013 61.909 57.7034C63.5709 57.0055 65.6819 58.2584 66.624 60.5019Z" fill="#074B77"/>
<path d="M53.127 66.1702C54.0692 68.4137 52.2668 67.9996 50.605 68.6975C48.9431 69.3954 48.0511 70.941 47.1089 68.6975C46.1668 66.454 46.7502 64.0696 48.412 63.3717C50.0739 62.6738 52.1849 63.9267 53.127 66.1702Z" fill="#074B77"/>
<path d="M53.1816 117.098C53.1816 113.001 56.5034 109.679 60.6009 109.679H65.5072C69.6048 109.679 72.9265 113.001 72.9265 117.098V117.098C72.9265 118.552 71.7478 119.731 70.2939 119.731H55.8143C54.3603 119.731 53.1816 118.552 53.1816 117.098V117.098Z" fill="#FF9200"/>
<rect x="72.5675" y="95.9394" width="14.3599" height="17.9499" rx="7.17996" transform="rotate(-24.7204 72.5675 95.9394)" fill="#FF9200"/>
<rect x="71.1312" y="27.207" width="9.33395" height="14.3599" rx="4.66698" fill="#ABABA8"/>
<rect x="65.9115" y="12.4881" width="19.7449" height="19.7449" rx="8.73174" fill="#F2DE29"/>
<rect x="71.1312" y="23.9759" width="9.33395" height="13.6419" rx="4.66698" fill="#F2DE29"/>
<path d="M75.6035 8.00046V1" stroke="#F2DE29" stroke-width="1.58759" stroke-linecap="round"/>
<path d="M86.9275 11.694L91.8776 6.74397" stroke="#F2DE29" stroke-width="1.58759" stroke-linecap="round"/>
<path d="M64.1306 11.694L59.1805 6.74397" stroke="#F2DE29" stroke-width="1.58759" stroke-linecap="round"/>
<path d="M90.876 22.5399H97.8765" stroke="#F2DE29" stroke-width="1.58759" stroke-linecap="round"/>
<path d="M60.1821 22.5399H53.1816" stroke="#F2DE29" stroke-width="1.58759" stroke-linecap="round"/>
<circle cx="72.9264" cy="20.386" r="3.94898" fill="#FFF171"/>
</svg>
